<svg width="21" height="24" viewBox="0 0 21 24" fill="none" xmlns="http://www.w3.org/2000/svg">
<path d="M4.16667 1.5L1 5.7V20.4C1 20.957 1.22242 21.4911 1.61833 21.8849C2.01424 22.2787 2.55121 22.5 3.11111 22.5H17.8889C18.4488 22.5 18.9858 22.2787 19.3817 21.8849C19.7776 21.4911 20 20.957 20 20.4V5.7L16.8333 1.5H4.16667Z" stroke="#E2F0FF" stroke-width="2" stroke-linecap="round" stroke-linejoin="round"/>
<path d="M1 5.69995H20" stroke="#E2F0FF" stroke-width="2" stroke-linecap="round" stroke-linejoin="round"/>
<path d="M14.7223 9.8999C14.7223 11.0138 14.2774 12.0821 13.4856 12.8698C12.6938 13.6574 11.6199 14.0999 10.5001 14.0999C9.38025 14.0999 8.30631 13.6574 7.51449 12.8698C6.72267 12.0821 6.27783 11.0138 6.27783 9.8999" stroke="#E2F0FF" stroke-width="2" stroke-linecap="round" stroke-linejoin="round"/>
</svg>
