<svg width="23" height="21" viewBox="0 0 23 21" fill="none" xmlns="http://www.w3.org/2000/svg">
<path d="M20.2913 3.11183C19.7805 2.60083 19.1741 2.19547 18.5066 1.91891C17.8392 1.64235 17.1238 1.5 16.4013 1.5C15.6788 1.5 14.9634 1.64235 14.2959 1.91891C13.6285 2.19547 13.022 2.60083 12.5113 3.11183L11.4513 4.17183L10.3913 3.11183C9.3596 2.08013 7.96032 1.50053 6.50129 1.50053C5.04226 1.50053 3.64298 2.08013 2.61129 3.11183C1.5796 4.14352 1 5.54279 1 7.00183C1 8.46086 1.5796 9.86013 2.61129 10.8918L3.67129 11.9518L11.4513 19.7318L19.2313 11.9518L20.2913 10.8918C20.8023 10.3811 21.2076 9.77464 21.4842 9.10718C21.7608 8.43972 21.9031 7.72431 21.9031 7.00183C21.9031 6.27934 21.7608 5.56393 21.4842 4.89647C21.2076 4.22901 20.8023 3.62258 20.2913 3.11183Z" stroke="#E2F0FF" stroke-width="2" stroke-linecap="round" stroke-linejoin="round"/>
</svg>
